HIERARCHY
ROOT Hips
{
  OFFSET 0 0 0
  CHANNELS 6 Xposition Yposition Zposition Zrotation Yrotation Xrotation
  JOINT LeftThigh
  {
    OFFSET 8.409438 0 -5.917753
    CHANNELS 3 Zrotation Yrotation Xrotation
    JOINT LeftLeg
    {
      OFFSET 0 0 -42.358652
      CHANNELS 3 Zrotation Yrotation Xrotation
      JOINT LeftFoot
      {
        OFFSET 0 0 -39.357303
        CHANNELS 3 Zrotation Yrotation Xrotation
      }
    }
  }
  JOINT RightThigh
  {
    OFFSET -8.409438 0 -5.917753
    CHANNELS 3 Zrotation Yrotation Xrotation
    JOINT RightLeg
    {
      OFFSET 0 0 -42.358652
      CHANNELS 3 Zrotation Yrotation Xrotation
      JOINT RightFoot
      {
        OFFSET 0 0 -39.357303
        CHANNELS 3 Zrotation Yrotation Xrotation
      }
    }
  }
  JOINT SpineLow
  {
    OFFSET 0 0 4.719101
    CHANNELS 3 Zrotation Yrotation Xrotation
    JOINT SpineMid
    {
      OFFSET 0 0 12.899191
      CHANNELS 3 Zrotation Yrotation Xrotation
      JOINT Chest
      {
        OFFSET 0 0 12.899191
        CHANNELS 3 Zrotation Yrotation Xrotation
        JOINT LeftShoulder
        {
          OFFSET 7.550562 1.41573 9.438202
          CHANNELS 3 Zrotation Yrotation Xrotation
          JOINT LeftArm
          {
            OFFSET 9.155056 0 4.247191
            CHANNELS 3 Zrotation Yrotation Xrotation
            JOINT LeftForearm
            {
              OFFSET 0 0 25.771955
              CHANNELS 3 Zrotation Yrotation Xrotation
              JOINT LeftHand
              {
                OFFSET 0 0 25.197169
                CHANNELS 3 Zrotation Yrotation Xrotation
              }
            }
          }
        }
        JOINT RightShoulder
        {
          OFFSET -7.550562 1.41573 9.438202
          CHANNELS 3 Zrotation Yrotation Xrotation
          JOINT RightArm
          {
            OFFSET -9.155056 0 4.247191
            CHANNELS 3 Zrotation Yrotation Xrotation
            JOINT RightForearm
            {
              OFFSET 0 0 -25.771955
              CHANNELS 3 Zrotation Yrotation Xrotation
              JOINT RightHand
              {
                OFFSET 0 0 -25.197169
                CHANNELS 3 Zrotation Yrotation Xrotation
              }
            }
          }
        }
        JOINT Neck
        {
          OFFSET 0 0 15.101124
          CHANNELS 3 Zrotation Yrotation Xrotation
          JOINT Head
          {
            OFFSET 0 0 11.325843
            CHANNELS 3 Zrotation Yrotation Xrotation
            End Site
            {
              OFFSET 0 0 14.157303
            }
          }
        }
      }
    }
  }
}
MOTION
Frames: 5
Frame Time: 0.0
0.0  89.887642  0.0  -6.115118  -32.577867  -94.948225  26.19908  -22.265028  5.638815  5.35701  0.406765  13.879098  -0.48213  -0.549848  0.771052  5.169185  -0.618036  4.15994  -15.076424  6.060926  2.961971  3.110587  0.770026  0.054622  -1.624867  -0.225819  0.06253  -4.442108  -0.612734  0.186003  -4.442108  -0.612734  0.186003  -31.6517  13.179788  8.864851  -157.342473  54.068166  -87.856294  -41.513023  38.455178  83.597998  132.78105  22.660024  -19.635263  -15.047153  -15.687186  11.88966  62.843951  19.207829  29.488432  -2.944745  16.027704  -106.276107  91.924483  -6.067782  -33.532169  -1.46197  -12.92635  -17.377475  -1.466521  -9.662609  -13.008537  
0.0  89.887642  0.0  -5.238295  -27.271397  -95.344838  24.929138  -21.873748  5.242101  2.752795  1.121987  12.806149  -0.562455  -0.51356  0.708483  3.129428  0.316882  6.065529  -18.836697  5.648248  0.368762  2.36132  0.331598  0.080348  -2.268073  -0.403138  0.115137  -6.201971  -1.090028  0.352213  -6.201971  -1.090028  0.352213  -29.289916  11.981052  5.849706  -153.615616  57.486812  -79.549337  -38.368403  26.074201  88.681928  138.045476  30.710077  -9.328182  -12.200295  -13.251766  9.281595  56.676632  18.335912  34.795289  -2.474131  12.159342  -111.631744  88.685118  -2.941367  -34.634882  -1.940938  -11.037021  -17.796961  -1.77808  -8.229748  -13.341581  
0.0  89.887642  0.0  -3.814073  -23.087241  -95.970119  23.479089  -20.870928  5.322793  1.123772  1.275961  12.369499  -0.859928  -0.312369  0.559069  1.278532  1.930146  7.708367  -21.355005  4.930618  -1.489911  1.053017  0.143136  0.204979  -2.669831  -0.589519  0.101441  -7.301487  -1.597939  0.341984  -7.301487  -1.59794  0.341984  -27.013673  11.602722  2.886448  -146.186986  61.462724  -68.858435  -36.535427  12.175861  91.594722  142.781521  36.193076  2.414764  -10.350549  -9.889556  9.072901  51.279289  18.55348  39.750307  -3.104824  10.549907  -115.460304  86.207365  -1.398445  -36.897276  -2.3238  -8.79486  -18.408478  -2.008477  -6.5334  -13.812918  
0.0  89.887642  0.0  -2.62936  -17.767493  -95.849636  19.602728  -19.069444  5.018414  0.460022  1.028626  12.269816  -1.127381  -0.21776  0.472636  -2.79304  3.634735  8.142171  -22.677895  4.636036  -2.527028  0.406872  0.282039  0.279108  -3.02978  -0.707835  0.134  -8.287634  -1.914525  0.454331  -8.287635  -1.914525  0.454331  -26.328183  9.750403  -0.222888  -134.467871  64.800846  -55.285534  -36.40046  -0.744592  92.431725  147.11656  37.201131  14.654469  -10.018315  -7.038936  9.919294  47.137088  19.004783  43.586455  -1.302254  8.881664  -115.869468  87.89363  -2.661414  -36.469481  -3.055426  -6.932993  -19.885885  -2.51863  -5.106972  -14.931313  
0.0  89.887642  0.0  -1.613865  -13.596138  -95.830727  16.020586  -17.486756  4.831909  0.310062  1.195016  12.595596  -1.180765  -0.486102  0.204642  -6.125717  5.166018  8.189953  -22.655235  4.800842  -2.78738  0.352314  0.47257  0.298436  -3.161251  -0.663702  0.429812  -8.654331  -1.754407  1.259481  -8.65433  -1.754407  1.259481  -26.542774  5.218467  -3.27799  -119.622439  66.511327  -40.903094  -37.114818  -11.229481  92.943284  149.606669  34.66171  26.170657  -9.401322  -6.483366  10.415423  42.973809  19.944103  48.072095  2.021856  5.19365  -115.183523  91.984793  -4.782903  -34.292799  -3.638449  -5.989706  -22.25505  -2.949969  -4.366881  -16.712413  
